<svg id="Layer_1" data-name="Layer 1" xmlns="http://www.w3.org/2000/svg" viewBox="0 0 1003.22 129.36"><defs><style>.cls-1{fill:#78c0eb;}.cls-2{fill:#58ace0;}.cls-3{fill:#1db359;}.cls-4{fill:#4bba74;}.cls-5{fill:#ffd01b;}.cls-6{fill:#febe36;}.cls-7{fill:#fee88f;}.cls-8{fill:#010101;}.cls-9{font-size:90px;fill:#231f20;font-family:SegoeUI-Bold, Segoe UI;font-weight:700;}.cls-10{letter-spacing:-0.06em;}</style></defs><title>logo</title><circle class="cls-1" cx="710.92" cy="63.94" r="56.29"/><path class="cls-2" d="M855.35,387.29a56.3,56.3,0,0,1-25.68-106.4A56.3,56.3,0,1,0,871.32,385,56.29,56.29,0,0,1,855.35,387.29Z" transform="translate(-134.72 -270.94)"/><path class="cls-3" d="M829.67,280.89a56.34,56.34,0,0,0-27.19,17.86l4.11,4.11A56.55,56.55,0,0,1,829.67,280.89Z" transform="translate(-134.72 -270.94)"/><path class="cls-3" d="M831,381.78,823,386.41A56.39,56.39,0,0,0,871.31,385,56.47,56.47,0,0,1,831,381.78Z" transform="translate(-134.72 -270.94)"/><path class="cls-4" d="M894.35,363.12,864.41,356s-4.69-14.07-4.69-16.42,11.73-16.42,11.73-16.42l28.54-3a56.34,56.34,0,0,0-70.32-39.26,56.55,56.55,0,0,0-23.09,22l6.22,6.22,18.76,2.35,14.07,11.81,2.35,14,2.35,14.07-8.57,24.35L831,381.78A56.47,56.47,0,0,0,871.31,385,56.56,56.56,0,0,0,894.35,363.12Z" transform="translate(-134.72 -270.94)"/><path class="cls-3" d="M799.05,331q0-2.31.18-4.57l-9.37.78a56.33,56.33,0,0,0,22.61,53.16l7.39-5.67A56.18,56.18,0,0,1,799.05,331Z" transform="translate(-134.72 -270.94)"/><path class="cls-4" d="M831.57,353.64l-11.73-7-9.38-21.11-11.22.93q-.18,2.26-.18,4.57a56.18,56.18,0,0,0,20.81,43.7l6.36-4.88Z" transform="translate(-134.72 -270.94)"/><path class="cls-5" d="M845.64,352.35a15.53,15.53,0,0,1,31.06,0c0,11.65-15.53,27.18-15.53,27.18S845.64,364,845.64,352.35Z" transform="translate(-134.72 -270.94)"/><path class="cls-6" d="M851.46,350.41a15.52,15.52,0,0,1,7.8-13.47,15.53,15.53,0,0,0-13.62,15.41c0,11.65,15.53,27.18,15.53,27.18s1.59-1.6,3.76-4.14C860.71,370.69,851.46,359.39,851.46,350.41Z" transform="translate(-134.72 -270.94)"/><circle class="cls-7" cx="726.45" cy="81.41" r="7.76"/><path class="cls-5" d="M861.17,288.29a15.53,15.53,0,1,1,31.06,0c0,11.65-15.53,27.18-15.53,27.18S861.17,299.94,861.17,288.29Z" transform="translate(-134.72 -270.94)"/><path class="cls-6" d="M867,286.35a15.52,15.52,0,0,1,7.8-13.47,15.53,15.53,0,0,0-13.62,15.41c0,11.65,15.53,27.18,15.53,27.18s1.59-1.6,3.76-4.14C876.24,306.63,867,295.33,867,286.35Z" transform="translate(-134.72 -270.94)"/><circle class="cls-7" cx="741.98" cy="17.35" r="7.76"/><path class="cls-5" d="M785.47,313.53a15.53,15.53,0,0,1,31.06,0c0,11.65-15.53,27.18-15.53,27.18S785.47,325.17,785.47,313.53Z" transform="translate(-134.72 -270.94)"/><path class="cls-6" d="M791.29,311.58a15.52,15.52,0,0,1,7.8-13.47,15.53,15.53,0,0,0-13.62,15.41c0,11.65,15.53,27.18,15.53,27.18s1.59-1.6,3.76-4.14C800.53,331.86,791.29,320.57,791.29,311.58Z" transform="translate(-134.72 -270.94)"/><circle class="cls-7" cx="666.28" cy="42.58" r="7.76"/><path class="cls-8" d="M891.18,298.77A24.7,24.7,0,0,0,894,288.29,17.34,17.34,0,0,0,862,279.1a58,58,0,0,0-10.34-2,1.82,1.82,0,1,0-.37,3.62,54.42,54.42,0,0,1,9.09,1.73,17.27,17.27,0,0,0-1,5.87c0,12.26,15.41,27.81,16.06,28.46a1.84,1.84,0,0,0,2.57,0,83.1,83.1,0,0,0,11.29-14.48,53.94,53.94,0,0,1,8.37,16.29l-26.4,2.78A1.82,1.82,0,0,0,870,322c-.27.33-6.73,8.09-10,13.06a17.27,17.27,0,0,0-9.88,3.94l-.34-2.06-2.35-14a1.82,1.82,0,0,0-.62-1.09L832.74,310a1.82,1.82,0,0,0-.94-.41l-14.42-1.8a17.43,17.43,0,0,0-10.93-10.76,54,54,0,0,1,36.61-16.59,1.82,1.82,0,0,0-.17-3.64,58,58,0,0,0-40.64,19.4c-.41,0-.83-.05-1.25-.05a17.37,17.37,0,0,0-17.35,17.35c0,4.32,1.92,9.05,4.42,13.4a58.85,58.85,0,0,0-.54,8,58.11,58.11,0,1,0,103.65-36.1Zm-14.48,14c-3.64-3.94-13.71-15.67-13.71-24.53a13.71,13.71,0,1,1,27.42,0C890.41,297.15,880.33,308.88,876.7,312.82Zm-15.53,25.82a13.73,13.73,0,0,1,13.71,13.71c0,8.86-10.07,20.59-13.71,24.53-3.64-3.94-13.71-15.67-13.71-24.53A13.73,13.73,0,0,1,861.17,338.64Zm-30.36-25.48,13.15,11,2.23,13.33.81,4.84a17.25,17.25,0,0,0-3.18,10,21.35,21.35,0,0,0,1.57,7.5l-5.12,14.55-17.39,10a54.43,54.43,0,0,1-7.3-4.08l11.76-9a1.82,1.82,0,0,0,.62-.87l5.34-16.18a1.82,1.82,0,0,0-.79-2.13l-11.23-6.74-7.83-17.61c2.74-4.56,4.9-9.61,4.9-14.21a17.48,17.48,0,0,0-.11-1.94ZM801,299.82a13.73,13.73,0,0,1,13.71,13.71c0,8.86-10.07,20.59-13.71,24.53-3.64-3.94-13.71-15.67-13.71-24.53A13.73,13.73,0,0,1,801,299.82Zm-9.83,35.06q0-1.51.08-3A86.09,86.09,0,0,0,799.71,342a1.84,1.84,0,0,0,2.57,0,86,86,0,0,0,8.8-10.62l7.1,16a1.82,1.82,0,0,0,.73.82l10.48,6.29-4.71,14.26-12.19,9.35A54.41,54.41,0,0,1,791.17,334.88Zm54.47,54.47a54.22,54.22,0,0,1-18.5-3.24l15.52-8.89a1.82,1.82,0,0,0,.81-1l4.11-11.68a80.73,80.73,0,0,0,12.3,16.24,1.84,1.84,0,0,0,2.57,0c.51-.51,10-10.06,14.13-20.05l14.88,3.54A54.48,54.48,0,0,1,845.64,389.35ZM893.42,361l-15.63-3.72a18.79,18.79,0,0,0,.73-5,17.37,17.37,0,0,0-14.25-17.07c2.79-3.91,6.75-8.76,8.1-10.4l26.26-2.76a54.93,54.93,0,0,1,1.49,12.76A54.14,54.14,0,0,1,893.42,361Z" transform="translate(-134.72 -270.94)"/><path class="cls-8" d="M861.17,361.93a9.58,9.58,0,1,0-9.58-9.58A9.6,9.6,0,0,0,861.17,361.93Zm0-15.53a5.94,5.94,0,1,1-5.94,5.94A6,6,0,0,1,861.17,346.4Z" transform="translate(-134.72 -270.94)"/><path class="cls-8" d="M876.7,278.71a9.58,9.58,0,1,0,9.58,9.58A9.6,9.6,0,0,0,876.7,278.71Zm0,15.53a5.94,5.94,0,1,1,5.94-5.94A6,6,0,0,1,876.7,294.23Z" transform="translate(-134.72 -270.94)"/><path class="cls-8" d="M810.58,313.53a9.58,9.58,0,1,0-9.58,9.58A9.6,9.6,0,0,0,810.58,313.53Zm-15.53,0a5.94,5.94,0,1,1,5.94,5.94A6,6,0,0,1,795,313.53Z" transform="translate(-134.72 -270.94)"/><text class="cls-9" transform="translate(0 90.6)">TR<tspan class="cls-10" x="111.49" y="0">A</tspan><tspan x="169.8" y="0" xml:space="preserve">VEL THE W      RLD</tspan></text></svg>